<?xml version="1.0" standalone="no"?>
<!DOCTYPE svg PUBLIC "-//W3C//DTD SVG 20010904//EN"
 "http://www.w3.org/TR/2001/REC-SVG-20010904/DTD/svg10.dtd">
<svg version="1.0" xmlns="http://www.w3.org/2000/svg"
 width="128.000000pt" height="128.000000pt" viewBox="0 0 128.000000 128.000000"
 preserveAspectRatio="xMidYMid meet">

<g transform="translate(0.000000,128.000000) scale(0.100000,-0.100000)"
fill="#fff" stroke="none">
<path d="M582 1255 c-76 -33 -572 -339 -578 -357 -3 -10 -3 -26 1 -36 6 -22
541 -347 598 -364 28 -8 46 -8 74 0 57 17 592 342 598 364 4 10 4 26 1 36 -6
18 -507 327 -580 357 -44 19 -71 18 -114 0z"/>
<path d="M16 684 c-19 -19 -20 -45 -4 -66 13 -16 614 -378 628 -378 14 0 615
362 628 378 26 33 2 82 -40 82 -11 0 -148 -77 -304 -171 l-284 -170 -284 170
c-156 94 -293 171 -304 171 -11 0 -28 -7 -36 -16z"/>
<path d="M17 442 c-22 -24 -22 -55 1 -74 9 -8 151 -95 314 -193 199 -118 304
-176 317 -172 21 5 586 342 613 365 10 8 18 25 18 37 0 24 -29 55 -51 55 -8 0
-142 -77 -298 -171 -238 -143 -288 -169 -305 -161 -12 6 -142 82 -291 171
-148 89 -277 161 -286 161 -9 0 -23 -8 -32 -18z"/>
</g>
</svg>
